<?xml version="1.0" standalone="no"?>
<!DOCTYPE svg PUBLIC "-//W3C//DTD SVG 20010904//EN"
 "http://www.w3.org/TR/2001/REC-SVG-20010904/DTD/svg10.dtd">
<svg version="1.0" xmlns="http://www.w3.org/2000/svg"
 width="1158.000000pt" height="668.000000pt" viewBox="0 0 1158.000000 668.000000"
 preserveAspectRatio="xMidYMid meet">

<g transform="translate(0.000000,668.000000) scale(0.100000,-0.100000)"
fill="#000000" stroke="none">
<path d="M3571 5743 c-19 -10 -76 -56 -125 -103 -50 -48 -498 -470 -996 -939
-498 -469 -920 -870 -938 -890 -58 -64 -76 -108 -77 -186 0 -59 5 -76 27 -111
38 -59 77 -88 245 -183 189 -108 254 -151 293 -198 78 -94 138 -276 125 -378
-3 -27 -94 -421 -201 -874 -108 -454 -198 -845 -201 -870 -10 -92 32 -129 105
-92 20 10 498 454 1061 986 924 874 1026 973 1050 1024 51 110 24 223 -71 292
-23 16 -118 73 -212 127 -200 114 -278 182 -326 284 -45 97 -63 181 -57 263 3
39 94 441 202 894 207 876 216 925 173 955 -28 20 -35 20 -77 -1z"/>
<path d="M8930 4165 l0 -165 -75 0 -75 0 0 -150 0 -150 75 0 74 0 3 -402 c3
-394 3 -404 25 -445 28 -52 83 -98 142 -118 65 -22 233 -38 324 -30 l77 7 0
139 0 139 -65 0 c-91 0 -127 17 -151 71 -17 39 -19 76 -22 342 l-3 297 125 0
126 0 0 150 0 150 -125 0 -125 0 0 165 0 165 -165 0 -165 0 0 -165z"/>
<path d="M5293 3986 c-95 -18 -204 -61 -256 -100 -29 -21 -53 -53 -77 -101
-33 -66 -35 -74 -35 -175 0 -95 3 -110 27 -156 67 -128 203 -195 483 -239 178
-28 215 -47 215 -113 0 -36 -31 -66 -90 -88 -93 -33 -284 3 -427 81 l-63 35
-86 -115 c-48 -64 -85 -117 -83 -118 2 -2 20 -14 39 -29 85 -62 224 -119 350
-143 89 -18 272 -19 355 -4 226 42 359 207 342 425 -7 90 -33 150 -88 204 -80
78 -156 104 -478 165 -128 25 -166 52 -159 113 2 21 14 32 53 52 93 46 243 27
396 -51 32 -16 61 -29 63 -29 9 0 166 208 166 219 0 14 -96 76 -169 109 -139
62 -331 86 -478 58z"/>
<path d="M6823 3985 c-68 -19 -143 -57 -187 -96 l-35 -30 -3 58 -3 58 -165 0
-165 0 0 -820 0 -820 165 0 165 0 5 263 5 262 29 -30 c66 -71 210 -120 346
-120 186 1 311 50 431 169 133 133 197 311 186 516 -7 120 -26 195 -74 293
-68 138 -212 252 -367 292 -94 24 -253 26 -333 5z m264 -316 c116 -56 183
-173 183 -320 0 -85 -32 -177 -81 -233 -96 -109 -275 -144 -414 -82 -70 32
-107 66 -143 133 -41 77 -56 171 -42 259 14 86 30 123 76 174 98 108 280 138
421 69z"/>
<path d="M8496 3984 c-91 -20 -178 -65 -231 -120 -24 -24 -46 -44 -49 -44 -3
0 -6 36 -6 80 l0 80 -165 0 -165 0 0 -625 0 -625 164 0 164 0 4 328 c5 394 7
403 101 497 73 73 143 104 255 112 l72 6 0 163 0 164 -37 -1 c-21 0 -69 -7
-107 -15z"/>
</g>
</svg>
