<?xml version="1.0" standalone="no"?>
<!DOCTYPE svg PUBLIC "-//W3C//DTD SVG 20010904//EN"
 "http://www.w3.org/TR/2001/REC-SVG-20010904/DTD/svg10.dtd">
<svg xmlns="http://www.w3.org/2000/svg" width="807.5" height="485.406" viewBox="0 0 807.5 485.406">
  <g id="sprt" transform="translate(-143.5 575.888)">
    <path id="Path_8316" data-name="Path 8316" d="M357.1-574.3c-1.9,1-7.6,5.6-12.5,10.3-5,4.8-49.8,47-99.6,93.9s-92,87-93.8,89c-5.8,6.4-7.6,10.8-7.7,18.6,0,5.9.5,7.6,2.7,11.1,3.8,5.9,7.7,8.8,24.5,18.3,18.9,10.8,25.4,15.1,29.3,19.8,7.8,9.4,13.8,27.6,12.5,37.8-.3,2.7-9.4,42.1-20.1,87.4-10.8,45.4-19.8,84.5-20.1,87-1,9.2,3.2,12.9,10.5,9.2,2-1,49.8-45.4,106.1-98.6,92.4-87.4,102.6-97.3,105-102.4,5.1-11,2.4-22.3-7.1-29.2-2.3-1.6-11.8-7.3-21.2-12.7-20-11.4-27.8-18.2-32.6-28.4-4.5-9.7-6.3-18.1-5.7-26.3.3-3.9,9.4-44.1,20.2-89.4,20.7-87.6,21.6-92.5,17.3-95.5C362-576.4,361.3-576.4,357.1-574.3Z"/>
    <path id="Path_8317" data-name="Path 8317" d="M893-416.5V-400H878v30h14.9l.3,40.2c.3,39.4.3,40.4,2.5,44.5a26.406,26.406,0,0,0,14.2,11.8c6.5,2.2,23.3,3.8,32.4,3l7.7-.7V-299h-6.5c-9.1,0-12.7-1.7-15.1-7.1-1.7-3.9-1.9-7.6-2.2-34.2l-.3-29.7H951v-30H926v-33H893Z"/>
    <path id="Path_8318" data-name="Path 8318" d="M529.3-398.6c-9.5,1.8-20.4,6.1-25.6,10-2.9,2.1-5.3,5.3-7.7,10.1-3.3,6.6-3.5,7.4-3.5,17.5,0,9.5.3,11,2.7,15.6,6.7,12.8,20.3,19.5,48.3,23.9,17.8,2.8,21.5,4.7,21.5,11.3,0,3.6-3.1,6.6-9,8.8-9.3,3.3-28.4-.3-42.7-8.1L507-313l-8.6,11.5c-4.8,6.4-8.5,11.7-8.3,11.8.2.2,2,1.4,3.9,2.9,8.5,6.2,22.4,11.9,35,14.3,8.9,1.8,27.2,1.9,35.5.4,22.6-4.2,35.9-20.7,34.2-42.5-.7-9-3.3-15-8.8-20.4-8-7.8-15.6-10.4-47.8-16.5-12.8-2.5-16.6-5.2-15.9-11.3.2-2.1,1.4-3.2,5.3-5.2,9.3-4.6,24.3-2.7,39.6,5.1,3.2,1.6,6.1,2.9,6.3,2.9.9,0,16.6-20.8,16.6-21.9,0-1.4-9.6-7.6-16.9-10.9C563.2-399,544-401.4,529.3-398.6Z"/>
    <path id="Path_8319" data-name="Path 8319" d="M682.3-398.5c-6.8,1.9-14.3,5.7-18.7,9.6l-3.5,3-.3-5.8-.3-5.8h-33v164h33l.5-26.3.5-26.2,2.9,3c6.6,7.1,21,12,34.6,12,18.6-.1,31.1-5,43.1-16.9,13.3-13.3,19.7-31.1,18.6-51.6-.7-12-2.6-19.5-7.4-29.3-6.8-13.8-21.2-25.2-36.7-29.2C706.2-400.4,690.3-400.6,682.3-398.5Zm26.4,31.6c11.6,5.6,18.3,17.3,18.3,32,0,8.5-3.2,17.7-8.1,23.3-9.6,10.9-27.5,14.4-41.4,8.2-7-3.2-10.7-6.6-14.3-13.3a41.991,41.991,0,0,1-4.2-25.9c1.4-8.6,3-12.3,7.6-17.4C676.4-370.8,694.6-373.8,708.7-366.9Z"/>
    <path id="Path_8320" data-name="Path 8320" d="M849.6-398.4c-9.1,2-17.8,6.5-23.1,12-2.4,2.4-4.6,4.4-4.9,4.4s-.6-3.6-.6-8v-8H788v125h32.8l.4-32.8c.5-39.4.7-40.3,10.1-49.7,7.3-7.3,14.3-10.4,25.5-11.2l7.2-.6V-400l-3.7.1A68.977,68.977,0,0,0,849.6-398.4Z"/>
  </g>
</svg>



